# xmcd
#
# Track frame offsets: 
#        182
#        10357
#        24107
#        37232
#        48240
#        56557
#        63632
#        74507
#        85082
#        97082
#        106607
#        111182
#        131132
#        142907
#        158432
#        166607
#
# Disc length: 2555 seconds
#
# Revision: 0
# Processed by: cddbd v1.5PL3 Copyright (c) Steve Scherf et al.
# Submitted via: ExactAudioCopy v0.90b4
#
DISCID=cd09f910
DTITLE=Leadbelly - The Legendary Masters Series
DYEAR=1900
DGENRE=Blues
TTITLE0=On A Monday
TTITLE1=Defense Blues
TTITLE2=Keep Your Hands Off Her
TTITLE3=Jim Crow
TTITLE4=Down In The Valley
TTITLE5=Skin To My Lou
TTITLE6=Pigmeat
TTITLE7=Blue Tail Fly
TTITLE8=Boll Weevil Blues
TTITLE9=Midnight Special
TTITLE10=Sylvie
TTITLE11=Matchbox Blues
TTITLE12=You Must Have That True Religion, Halleloo
TTITLE13=Fannin' Street
TTITLE14=Green Corn
TTITLE15=Bourgeois Blues
EXTD=
EXTT0=
EXTT1=
EXTT2=
EXTT3=
EXTT4=
EXTT5=
EXTT6=
EXTT7=
EXTT8=
EXTT9=
EXTT10=
EXTT11=
EXTT12=
EXTT13=
EXTT14=
EXTT15=
PLAYORDER=
